<svg xmlns="http://www.w3.org/2000/svg" width="1165" height="215"><defs><clipPath clipPathUnits="userSpaceOnUse" id="cp1"><path d="M0 0h1165v215H0z"/></clipPath></defs><style></style><g id="Page 1" clip-path="url(#cp1)"><path id="Path 1" d="M597.36 56.27l-14.15 14.14-14.14-14.14 14.14-14.15 14.15 14.15zm16.32 99.95l-30.47 30.47-30.46-30.47 30.46-30.46 30.47 30.46z" fill="none" stroke="#fff" stroke-width="8"/><path id="Path 2" d="M1162.81 113.76c-10.08.44-20.15.64-30.23.96-10.08.23-20.15.44-30.23.57l-30.23.34-30.23.13-1.65.01-1.17-1.18-11.79-11.77h5.67l-33.12 33.15-2.85 2.84-2.85-2.84-21.07-21.06h5.71l-9.9 9.9v-5.72l9.61 9.6h-5.73l19.13-19.15v5.74l-19.8-19.79h5.76l-19.14 19.15-1.19 1.2h-1.7l-214.83.09 2.95-1.23-31.04 31.06-2.96 2.96-2.96-2.96-90.37-90.29-45.18-45.15-1.22-.99-.18-.15-.1-.01-.17-.05a1.01 1.01 0 01-.31-.16c-.27-.11-.71-.19-1.05-.33-.37-.06-.76-.05-1.14-.12-1.56-.02-3 .6-4.14 1.73l-11.28 11.29-22.58 22.59v-6.07l102.41 102.33h-6.16l28.99-29.02v6.18l-28.58-28.55h6.2l-16.97 16.98v-6.22l55.2 55.16h-6.26l57.93-57.98v6.31l-42.24-42.21h6.34l-13.97 13.98.02-6.33 27.89 28.24 3.15 3.18-3.17 3.17-56.45 56.51-28.23 28.25-14.11 14.12-7.06 7.06-.88.89-.44.44-.11.11-.46.41-.24.2c-.72.55-1.02.98-2.49 1.78-.61.33-1.26.7-1.87.94l-1.74.53c-1.15.39-2.39.36-3.59.49-2.4-.12-4.86-.56-6.96-1.83-1.12-.51-2.02-1.34-2.95-2.11-.54-.44-.69-.65-1.02-.96l-.89-.89-7.05-7.06-14.12-14.12-28.22-28.25-56.46-56.51-3.17-3.17 3.15-3.18 27.89-28.24.02 6.33-13.97-13.98h6.34l-42.24 42.21v-6.31l57.93 57.98h-6.26l55.2-55.16v6.22l-16.97-16.98h6.2l-28.58 28.55v-6.18l28.99 29.02h-6.16L635.47 38.05v6.07L612.9 21.53l-11.29-11.29c-2.24-2.33-6.03-2.3-8.3.08l-45.19 45.15-90.36 90.29-2.97 2.96-2.96-2.96-31.03-31.06 2.95 1.23-214.84-.09h-1.69l-1.2-1.2-19.13-19.15h5.76l-19.81 19.79v-5.74l19.13 19.15h-5.72l9.6-9.6v5.72l-9.9-9.9h5.72l-21.08 21.06-2.85 2.84-2.84-2.84-33.12-33.15h5.66l-11.78 11.77-1.18 1.18-1.65-.01-30.23-.13-30.23-.34c-10.07-.13-20.15-.34-30.23-.57-10.07-.32-20.15-.52-30.23-.96-1.1-.04-1.96-.98-1.91-2.08.05-1.05.89-1.87 1.91-1.92 10.08-.43 20.16-.63 30.23-.95 10.08-.23 20.16-.44 30.23-.58l30.23-.34 30.23-.12-2.83 1.17 11.77-11.79 2.84-2.83 2.83 2.83 33.15 33.12h-5.69l21.05-21.07 2.86-2.86 2.86 2.86 9.9 9.89 2.86 2.86-2.86 2.86-9.6 9.61-2.86 2.86-2.86-2.86-19.15-19.14-2.87-2.87 2.87-2.87 19.79-19.81 2.87-2.87 2.89 2.87 19.14 19.14-2.88-1.2 214.84-.09h1.72l1.23 1.23 31.05 31.03h-5.92l90.3-90.37 45.14-45.18c2.52-2.6 6.37-4.35 10.14-4.32.95.03 1.9.14 2.84.25.92.26 1.82.5 2.74.84.95.46 2.02 1.04 2.8 1.58l.78.63.38.31.2.16.09.08.41.37 11.3 11.29 22.59 22.57 3.04 3.04-3.04 3.03-102.32 102.41-3.08 3.08-3.08-3.08-29.01-28.99-3.09-3.08 3.09-3.1 28.56-28.58 3.1-3.1 3.1 3.1 16.99 16.97 3.1 3.11-3.1 3.11-55.16 55.2-3.13 3.13-3.13-3.13-57.98-57.93-3.15-3.15 3.15-3.16 42.21-42.24 3.17-3.17 3.17 3.17 13.99 13.97 3.15 3.15-3.13 3.18-27.87 28.26-.02-6.35 56.5 56.45 28.25 28.23 14.13 14.11 7.06 7.06.88.88c.27.26.66.69.79.74.38.25.66.64 1.1.78.75.52 1.7.58 2.58.7.44-.13.92 0 1.34-.21.21-.07.43-.13.65-.17.16-.07.22-.15.36-.19.09.16.96-.63 1.56-1.1l.24-.2c.33-.29-.38.34-.29.26l.06-.06.11-.11.44-.44.88-.88 7.07-7.06 14.12-14.11 28.25-28.23 56.5-56.45-.02 6.35-27.86-28.26-3.14-3.18 3.16-3.15 13.98-13.97 3.17-3.17 3.17 3.17 42.21 42.24 3.16 3.16-3.16 3.15-57.97 57.93-3.14 3.13-3.13-3.13-55.15-55.2-3.11-3.11 3.11-3.11 16.98-16.97 3.1-3.1 3.1 3.1 28.56 28.58 3.09 3.1-3.09 3.08-29.01 28.99-3.08 3.08-3.08-3.08L523.18 44.12l-3.03-3.03 3.03-3.04 22.59-22.57 11.3-11.29c2.62-2.65 6.45-4.3 10.24-4.22.94.07 1.9.13 2.82.3.93.28 1.81.47 2.76.88.49.25.98.5 1.45.78l.71.41.35.22.2.16.77.63.39.32.19.16.41.37.09.09 45.15 45.18 90.29 90.37h-5.92l31.06-31.03 1.22-1.23h1.73l214.83.09-2.88 1.2 19.15-19.14 2.88-2.87 2.88 2.87 19.79 19.81 2.87 2.87-2.87 2.87-19.15 19.14-2.87 2.86-2.86-2.86-9.6-9.61-2.86-2.86 2.86-2.86 9.91-9.89 2.86-2.86 2.85 2.86 21.06 21.07h-5.7l33.15-33.12 2.84-2.83 2.83 2.83 11.77 11.79-2.83-1.17 30.23.12 30.23.34c10.08.14 20.15.35 30.23.58 10.08.32 20.15.52 30.23.95 1.1.05 1.96.99 1.91 2.09a2 2 0 01-1.91 1.91z" fill="#fff"/></g></svg>