<svg xmlns="http://www.w3.org/2000/svg">
    <symbol id="decor" viewBox="0 0 1257 116">
        <path id="Path 1" d="M302.11 79.74L0 75.74l302.11-4a4 4 0 11.11 8h-.11zm653.2-8l302.11 4-302.11 4a4 4 0 11-.11-8h.11z" fill="var(--fill-dark,  #2c2e35)"/><path id="Path 2" d="M302.11 75.74h177.96c2.12 0 4.16-.84 5.66-2.34l23.04-23.05a8.015 8.015 0 0111.32 0l59.3 59.31a8.015 8.015 0 0011.32 0l29.68-29.69a7.985 7.985 0 000-11.31L601.44 49.7a8.015 8.015 0 00-11.32 0l-17.68 17.69a7.985 7.985 0 000 11.31l5.29 5.29c3.12 3.12 8.18 3.12 11.31 0l5.66-5.66a7.997 7.997 0 000-11.32l-18.88-18.88-13.02-13.02c-3.12-3.12-8.19-3.12-11.31 0l-23.32 23.33-13.11 13.1c-3.14 3.14-3.12 8.24.04 11.36l2.87 2.83c3.13 3.08 8.17 3.06 11.28-.04l55.51-55.52 24.05-24.05C611.94 3 617 3 620.12 6.12l21.67 21.67a7.985 7.985 0 010 11.31l-13.08 13.09-13.08-13.09a7.985 7.985 0 010-11.31L637.3 6.12c3.12-3.12 8.19-3.12 11.31 0l24.05 24.05 55.52 55.52c3.1 3.1 8.14 3.12 11.27.04l2.87-2.83c3.16-3.12 3.18-8.22.04-11.36l-13.11-13.1-23.32-23.33c-3.12-3.12-8.19-3.12-11.31 0L681.6 48.13l-18.88 18.88a7.997 7.997 0 000 11.32l5.66 5.66a8.015 8.015 0 0011.32 0l5.28-5.29a7.985 7.985 0 000-11.31L667.3 49.7a8.015 8.015 0 00-11.32 0l-18.95 18.96a7.985 7.985 0 000 11.31l29.69 29.69c3.12 3.12 8.18 3.12 11.31 0l59.3-59.31a8.015 8.015 0 0111.32 0l23.04 23.05c1.5 1.5 3.54 2.34 5.66 2.34h177.96" fill="none" stroke="var(--fill-dark,  #2c2e35)" stroke-linecap="round" stroke-width="8"/>
    </symbol>

</svg>